<svg width="60" height="60" viewBox="0 0 60 60" fill="none" xmlns="http://www.w3.org/2000/svg">
<rect width="60" height="60" rx="6" fill="#F8FAFF"/>
<path fill-rule="evenodd" clip-rule="evenodd" d="M31.2693 31.1312C30.6444 30.5063 30.6445 29.4933 31.2693 28.8685C31.8941 28.2436 32.9072 28.2436 33.532 28.8685L38.332 33.6686C38.9569 34.2934 38.9569 35.3065 38.332 35.9313L33.532 40.7312C32.9072 41.3561 31.8941 41.356 31.2693 40.7312C30.6444 40.1063 30.6445 39.0933 31.2693 38.4685L33.3279 36.3998H26.8007V42.7998H42.8007V26.7998H26.8007V33.1998H33.3279L31.2693 31.1312ZM42.8025 23.6C44.5684 23.6 46 25.0353 46 26.7975V42.8025C46 44.5684 44.5647 46 42.8025 46H26.7975C25.0316 46 23.6 44.5647 23.6 42.8025V36.4H17.1975C15.4316 36.4 14 34.9647 14 33.2025V17.1975C14 15.4316 15.4353 14 17.1975 14H33.2025C34.9684 14 36.4 15.4353 36.4 17.1975V23.6H42.8025ZM33.1993 17.2002H17.1993V33.2002H23.5993V26.7976C23.5993 25.0317 25.0346 23.6002 26.7968 23.6002H33.1993V17.2002Z" fill="#0E1952"/>
<path fill-rule="evenodd" clip-rule="evenodd" d="M31.2695 28.8684C30.6446 29.4933 30.6446 30.5063 31.2694 31.1312L33.3281 33.1998H26.8008V26.8H42.8V42.7998H26.8008V36.3998H33.3281L31.2695 38.4684C30.6446 39.0933 30.6446 40.1063 31.2694 40.7312C31.8943 41.356 32.9073 41.356 33.5322 40.7312L38.3322 35.9313C38.957 35.3065 38.957 34.2934 38.3322 33.6685L33.5322 28.8684C32.9074 28.2436 31.8943 28.2436 31.2695 28.8684ZM42.8 42.7998V42.8H26.8V26.8H26.8008V26.7998H42.8008V42.7998H42.8Z" fill="#0E63F4"/>
</svg>
