<svg width="60" height="60" viewBox="0 0 60 60" fill="none" xmlns="http://www.w3.org/2000/svg">
<path d="M54 0H6C2.68629 0 0 2.68629 0 6V54C0 57.3137 2.68629 60 6 60H54C57.3137 60 60 57.3137 60 54V6C60 2.68629 57.3137 0 54 0Z" fill="#F8FAFF"/>
<path fill-rule="evenodd" clip-rule="evenodd" d="M17.082 14.4741C16.1531 14.1332 15.6764 13.1037 16.0174 12.1748C16.3583 11.2459 17.3877 10.7693 18.3166 11.1102C22.4196 12.6161 25.0138 15.3938 26.2729 19.0182H29.3333C29.8131 19.0182 30.2729 19.2106 30.6096 19.5524L43.5138 32.6495C44.8984 34.0548 44.8943 36.3158 43.4994 37.7144L33.6786 47.5611C32.2836 48.9598 30.0156 48.964 28.6122 47.5747L15.5312 34.6248C15.1913 34.2882 15 33.8298 15 33.3515V20.8098C15 19.8203 15.8022 19.0182 16.7917 19.0182H22.3955C21.3727 16.9641 19.6607 15.4206 17.082 14.4741ZM18.5833 22.6015V32.6078L31.125 44.9973L40.9792 35.1432L28.4375 22.6015H27.0618C27.1871 23.7685 27.1959 24.9389 27.1121 26.0897C27.9208 26.7467 28.4375 27.7492 28.4375 28.8723C28.4375 30.8513 26.8332 32.4557 24.8542 32.4557C22.8751 32.4557 21.2708 30.8513 21.2708 28.8723C21.2708 27.3513 22.2185 26.0516 23.5557 25.5315C23.6091 24.555 23.5805 23.5685 23.4508 22.6015H18.5833Z" fill="#0E1952"/>
<path d="M17.6875 12.7471C25.3021 15.8825 25.5676 21.6861 25.3021 27.5284" stroke="#1256EC" stroke-width="3.6" stroke-linecap="round" stroke-linejoin="bevel"/>
<path d="M24.8543 32.4558C26.8333 32.4558 28.4377 30.8515 28.4377 28.8725C28.4377 26.8935 26.8333 25.2891 24.8543 25.2891C22.8753 25.2891 21.271 26.8935 21.271 28.8725C21.271 30.8515 22.8753 32.4558 24.8543 32.4558Z" fill="#1663EF"/>
</svg>
