<svg width="60" height="60" viewBox="0 0 60 60" fill="none" xmlns="http://www.w3.org/2000/svg">
<path d="M54 0H6C2.68629 0 0 2.68629 0 6V54C0 57.3137 2.68629 60 6 60H54C57.3137 60 60 57.3137 60 54V6C60 2.68629 57.3137 0 54 0Z" fill="#F8FAFF"/>
<g clip-path="url(#clip0_529_2893)">
<path fill-rule="evenodd" clip-rule="evenodd" d="M28.302 24.4849L33.4979 29.6808L38.259 24.9169L33.0631 19.721L28.302 24.4849ZM30.682 17.3398L29.7098 16.3676L24.9472 21.1301L25.9209 22.1038L30.682 17.3398ZM35.8791 32.062L36.8534 33.0363L41.6159 28.2737L40.6402 27.2981L35.8791 32.062ZM31.4954 32.4413L20.1879 43.7488C18.5421 45.3946 15.8719 45.3929 14.2313 43.7523C12.5874 42.1084 12.5906 39.4398 14.2348 37.7957L25.5423 26.4881L22.5638 23.5097C21.2497 22.1956 21.2494 20.0654 22.5634 18.7513L27.3305 13.9843C28.6444 12.6704 30.7776 12.6733 32.0889 13.9846L43.9989 25.8947C45.313 27.2088 45.3134 29.339 43.9993 30.6531L39.2323 35.4201C37.9184 36.734 35.7852 36.7311 34.4739 35.4198L31.4954 32.4413ZM27.9231 28.8693L16.6073 40.1851C16.2879 40.5045 16.2834 41.0421 16.6122 41.3709C16.9432 41.702 17.4718 41.7018 17.7979 41.3758L29.1138 30.0599L27.9231 28.8693Z" fill="#0E1952"/>
<path fill-rule="evenodd" clip-rule="evenodd" d="M45.5089 43.6322C45.9701 43.6322 46.3439 44.0055 46.3439 44.482V46.15C46.3439 46.6194 45.9606 46.9998 45.5089 46.9998H30.3409C29.8797 46.9998 29.5059 46.6266 29.5059 46.15V44.482C29.5059 44.0127 29.8892 43.6322 30.3409 43.6322H32.8735V41.9466C32.8735 41.0177 33.6328 40.2646 34.5645 40.2646H41.2853C42.2192 40.2646 42.9763 41.0208 42.9763 41.9466V43.6322H45.5089Z" fill="#0E63F4"/>
</g>
<defs>
<clipPath id="clip0_529_2893">
<rect width="34" height="34" fill="white" transform="translate(13 13)"/>
</clipPath>
</defs>
</svg>
