<svg width="143" height="63" viewBox="0 0 143 63" fill="none" xmlns="http://www.w3.org/2000/svg">
<path d="M11.5884 50V13.6364H35.2745V19.5668H18.7262V28.8352H33.6765V34.7656H18.7262V50H11.5884ZM40.6234 50V22.7273H47.6191V50H40.6234ZM60.9492 34.1264V50H53.9535V22.7273H60.6296V27.4503H60.9492C61.5647 25.8878 62.5709 24.6508 63.9677 23.7393C65.3763 22.8279 67.0927 22.3722 69.1168 22.3722C71.0108 22.3722 72.6561 22.7805 74.0529 23.5973C75.4615 24.4141 76.5565 25.5859 77.3377 27.1129C78.119 28.6399 78.5037 30.4806 78.4918 32.6349V50H71.4961V33.8068C71.5079 32.0549 71.0581 30.6877 70.1467 29.7053C69.247 28.7228 68.0041 28.2315 66.418 28.2315C65.3526 28.2315 64.4057 28.4624 63.5771 28.924C62.7603 29.3857 62.1211 30.0604 61.6594 30.9482C61.1978 31.8241 60.9611 32.8835 60.9492 34.1264ZM96.8379 60.7955C94.4586 60.7955 92.4167 60.4699 90.7122 59.8189C89.0195 59.1797 87.6641 58.3097 86.6461 57.2088C85.6281 56.1198 84.9416 54.9006 84.5865 53.5511L90.9785 52.3793C91.2153 52.9119 91.5704 53.4268 92.0439 53.924C92.5292 54.433 93.1743 54.8473 93.9792 55.1669C94.7842 55.4865 95.7844 55.6463 96.9799 55.6463C98.72 55.6463 100.152 55.2261 101.277 54.3857C102.413 53.5452 102.981 52.1544 102.981 50.2131V45.1349H102.662C102.33 45.8452 101.839 46.5436 101.188 47.2301C100.549 47.9167 99.7084 48.4848 98.6667 48.9347C97.6251 49.3845 96.3526 49.6094 94.8493 49.6094C92.7778 49.6094 90.8957 49.1241 89.2029 48.1534C87.5221 47.1828 86.1845 45.715 85.1902 43.75C84.1958 41.7732 83.6987 39.2874 83.6987 36.2926C83.6987 33.2505 84.2018 30.6937 85.2079 28.6222C86.2141 26.5507 87.5576 24.9941 89.2385 23.9524C90.9312 22.8989 92.8014 22.3722 94.8493 22.3722C96.4118 22.3722 97.7079 22.6385 98.7377 23.1712C99.7794 23.692 100.608 24.3312 101.224 25.0888C101.851 25.8464 102.33 26.5743 102.662 27.2727H102.981V22.7273H109.906V50.3551C109.906 52.6752 109.344 54.6046 108.219 56.1435C107.095 57.6941 105.55 58.8542 103.585 59.6236C101.62 60.4048 99.371 60.7955 96.8379 60.7955ZM96.9444 44.2472C98.2347 44.2472 99.3296 43.9276 100.229 43.2884C101.141 42.6491 101.833 41.7377 102.307 40.554C102.78 39.3584 103.017 37.9261 103.017 36.2571C103.017 34.5999 102.78 33.1558 102.307 31.9247C101.845 30.6818 101.158 29.723 100.247 29.0483C99.3474 28.3617 98.2465 28.0185 96.9444 28.0185C95.6068 28.0185 94.4823 28.3736 93.5708 29.0838C92.6712 29.7822 91.9906 30.7528 91.5289 31.9957C91.0673 33.2386 90.8365 34.6591 90.8365 36.2571C90.8365 37.8788 91.0673 39.2874 91.5289 40.483C92.0024 41.6785 92.689 42.6077 93.5886 43.2706C94.5001 43.9216 95.6187 44.2472 96.9444 44.2472ZM128.461 50.5327C125.691 50.5327 123.306 49.9645 121.305 48.8281C119.305 47.6799 117.766 46.0582 116.689 43.9631C115.612 41.8561 115.073 39.3703 115.073 36.5057C115.073 33.7003 115.612 31.2382 116.689 29.1193C117.778 26.9886 119.299 25.3314 121.252 24.1477C123.205 22.964 125.501 22.3722 128.141 22.3722C129.881 22.3722 131.515 22.6503 133.042 23.2067C134.569 23.763 135.912 24.6094 137.072 25.7457C138.232 26.8821 139.138 28.3203 139.789 30.0604C140.452 31.7886 140.783 33.8305 140.783 36.1861V38.2102H118.091V33.7003H134.143C134.143 32.5402 133.894 31.5104 133.397 30.6108C132.9 29.6993 132.207 28.9891 131.319 28.4801C130.443 27.9593 129.42 27.6989 128.248 27.6989C127.017 27.6989 125.934 27.9889 124.998 28.5689C124.063 29.1489 123.329 29.9183 122.797 30.8771C122.276 31.8241 122.01 32.8717 121.998 34.0199V38.1392C121.998 39.607 122.27 40.8677 122.814 41.9212C123.359 42.9747 124.122 43.7855 125.105 44.3537C126.087 44.9219 127.242 45.206 128.567 45.206C129.455 45.206 130.26 45.0817 130.982 44.8331C131.716 44.5727 132.343 44.1939 132.864 43.6967C133.397 43.1996 133.799 42.59 134.072 41.8679L140.57 42.4361C140.203 44.0696 139.481 45.496 138.404 46.7152C137.327 47.9226 135.948 48.8636 134.267 49.5384C132.586 50.2012 130.651 50.5327 128.461 50.5327Z" fill="#101828"/>
<path d="M46.6662 11.2158C49.3517 8.43484 53.7832 8.35748 56.5642 11.043V11.043L50.6596 17.1574C47.974 19.9384 43.5426 20.0157 40.7616 17.3302V17.3302L46.6662 11.2158Z" fill="#101828"/>
</svg>
